<svg xmlns="http://www.w3.org/2000/svg" xmlns:xlink="http://www.w3.org/1999/xlink" width="500" zoomAndPan="magnify" viewBox="0 0 375 374.999991" height="500" preserveAspectRatio="xMidYMid meet" version="1.0"><defs><g/></defs><g fill="#65ffda" fill-opacity="1"><g transform="translate(13.170427, 167.332676)"><g><path d="M 9.988281 0 L 82.910156 0 C 124.269531 0 157.832031 -22.777344 157.832031 -69.925781 C 157.832031 -118.074219 123.46875 -142.648438 82.113281 -142.648438 C 49.148438 -142.648438 39.359375 -112.878906 38.359375 -106.886719 L 38.359375 -139.253906 L 9.988281 -139.253906 Z M 38.359375 -3.394531 L 38.359375 -83.113281 C 38.359375 -116.277344 55.539062 -139.253906 82.113281 -139.253906 C 111.882812 -139.253906 129.0625 -115.078125 129.0625 -69.925781 C 129.0625 -29.367188 109.484375 -3.394531 79.714844 -3.394531 Z M 38.359375 -3.394531 "/></g></g></g><g fill="#65ffda" fill-opacity="1"><g transform="translate(177.989239, 167.332676)"><g><path d="M 9.988281 52.542969 L 38.359375 52.542969 C 38.359375 52.542969 38.359375 -2.398438 38.359375 -4.195312 C 43.953125 -1.597656 55.140625 3.394531 71.921875 3.394531 C 104.6875 3.394531 136.054688 -4.394531 136.054688 -48.546875 C 136.054688 -91.503906 112.679688 -103.089844 83.910156 -103.089844 C 61.535156 -103.089844 50.746094 -91.902344 42.355469 -66.730469 C 40.355469 -60.933594 39.359375 -54.941406 38.359375 -48.949219 L 38.359375 -99.894531 L 9.988281 -99.894531 Z M 45.550781 -64.929688 C 51.945312 -89.105469 66.128906 -99.292969 79.316406 -99.292969 C 100.894531 -99.292969 106.886719 -77.71875 106.886719 -48.546875 C 106.886719 -6.394531 92.101562 -0.199219 67.328125 -0.199219 C 54.542969 -0.199219 43.753906 -5.59375 38.359375 -8.191406 C 38.757812 -28.171875 40.15625 -44.753906 45.550781 -64.929688 Z M 45.550781 -64.929688 "/></g></g></g><g fill="#65ffda" fill-opacity="1"><g transform="translate(321.031981, 167.332676)"><g><path d="M 20.378906 3.195312 C 29.367188 3.195312 36.761719 -4.195312 36.761719 -13.1875 C 36.761719 -22.175781 29.367188 -29.367188 20.378906 -29.367188 C 11.386719 -29.367188 3.996094 -22.175781 3.996094 -13.1875 C 3.996094 -4.195312 11.386719 3.195312 20.378906 3.195312 Z M 20.378906 3.195312 "/></g></g></g></svg>